<svg viewBox="0 0 64 64" xmlns="http://www.w3.org/2000/svg">
  <defs>
    <linearGradient id="g" x1="0" y1="0" x2="1" y2="1">
      <stop offset="0" stop-color="#0C6B66"/>
      <stop offset="1" stop-color="#073F3C"/>
    </linearGradient>
  </defs>
  <rect x="2" y="2" width="60" height="60" rx="16" fill="url(#g)"/>
  <g stroke="#EAF3F1" fill="none" stroke-linecap="round">
    <circle cx="32" cy="32" r="20" stroke-width="3.4"/>
    <circle cx="32" cy="32" r="13.5" stroke-width="1.6" opacity="0.45"/>
    <line x1="32" y1="32" x2="32" y2="14" stroke-width="2.1" transform="rotate(0 32 32)"/>
    <line x1="32" y1="32" x2="32" y2="14" stroke-width="2.1" transform="rotate(90 32 32)"/>
    <line x1="32" y1="32" x2="32" y2="14" stroke-width="2.1" transform="rotate(135 32 32)"/>
    <line x1="32" y1="32" x2="32" y2="14" stroke-width="2.1" transform="rotate(180 32 32)"/>
    <line x1="32" y1="32" x2="32" y2="14" stroke-width="2.1" transform="rotate(225 32 32)"/>
    <line x1="32" y1="32" x2="32" y2="14" stroke-width="2.1" transform="rotate(270 32 32)"/>
    <line x1="32" y1="32" x2="32" y2="14" stroke-width="2.1" transform="rotate(315 32 32)"/>
  </g>
  <g transform="rotate(45 32 32)">
    <line x1="32" y1="32" x2="32" y2="13" stroke="#F59E0B" stroke-width="3.2" stroke-linecap="round"/>
    <circle cx="32" cy="11.5" r="3.4" fill="#F59E0B"/>
  </g>
  <circle cx="32" cy="32" r="3.4" fill="#EAF3F1"/>
</svg>
